<svg xmlns="http://www.w3.org/2000/svg" preserveAspectRatio="xMidYMid meet" width="480" height="333" viewBox="0 0 480 333"><defs><clipPath id="a"><path d="M0 0h480v333H0z"/></clipPath></defs><path d="M214.874 263.201c-7.724-1.059 5.606-12.099 9.506-24.686 3.231-10.43 7.366-19.846 14.932-17.967 5.974 1.484-5.1 12.43-10.452 22.354-7.548 13.998-7.472 21.192-13.986 20.299z" fill="#D3422B"/><path d="M256.574 175.534c-7.257-2.76 29.291-57.642 42.737-78.177 8.76-13.378 13.3-35.068 21.459-45.136 7.789-9.613-4.976 36.818-13.14 48.833-11.383 16.752-39.144 79.011-51.056 74.48zM129.825 303.427c-24.84 4.655-85.772 5.859-82.067 2.745 7.453-6.263 39.311-4.843 82.204-10.292 58.325-7.411 73.159-23.862 73.558-17.018.961 16.469-35.11 17.335-73.695 24.565zM41.863 285.794c-36.121 73.408 6.289-64.538 90.484-143.354C223.816 53.395 306.843 17.073 323.174 30.871c-89.066 17.775-181.212 120.913-181.212 120.913s-69.227 77.647-100.099 134.01z" fill="#D4422B"/><path d="M328.704 33.945l.602.468 1.389 1.019 1.44.968 1.423.869 1.404.776 1.386.687 1.37.604 1.354.526 1.342.455 1.331.387 1.324.323 1.317.264 1.312.208 1.308.155 1.305.104 1.303.057 1.302.011 1.3-.032 1.299-.072 1.299-.11 1.944-.233 2.593-.424 2.597-.539 2.594-.638 2.592-.72 2.588-.785 3.873-1.265 5.142-1.763 3.832-1.309 2.539-.836 2.526-.786 2.509-.723 2.492-.641 2.471-.544 2.448-.431 1.815-.239 1.199-.115 1.195-.079 1.186-.041 1.177.001 1.167.043 1.156.087 1.144.132 1.13.18 1.116.227.534.128-.046-.012.497.134.887.29.83.329.812.368 1.245.632 1.691.939 1.799 1.01 1.482.784 1.063.514 1.076.465 1.101.412 1.122.342 1.14.261.601.101.041.006.319.041.676.06.674.024.659-.009.953-.07 1.235-.184 1.2-.268 1.163-.331 1.132-.372 1.103-.395 1.078-.397 1.054-.381 1.032-.343 1.012-.288.989-.213.963-.12.931-.012.652.067.398.079.171.043c.905.221.958-.585.119-1.8-.84-1.215-2.255-2.379-3.16-2.6l-.329-.078-.603-.107-.852-.076-1.081.022-1.06.137-1.052.229-1.049.299-1.053.351-1.06.382-1.07.395-1.082.387-1.096.362-1.109.316-1.122.254-1.142.173-.868.067-.575.01-.575-.018-.59-.051-.32-.041.041.006-.443-.07-.904-.199-.868-.256-.842-.308-.83-.354-.811-.386-1.286-.677-1.848-1.038-1.963-1.082-1.532-.77-1.071-.476-1.088-.422-1.072-.345-.499-.134-.047-.012-.632-.149-1.228-.248-1.226-.193-1.226-.14-1.227-.091-1.228-.044h-1.23l-1.232.043-1.235.082-1.243.121-1.865.246-2.493.44-2.505.552-2.518.649-2.529.728-2.54.791-2.548.838-3.834 1.31-5.129 1.759-3.854 1.259-2.567.779-2.564.712-2.558.63-2.55.531-2.542.417-1.9.228-1.259.107-1.254.071-1.248.031-1.242-.01-1.235-.052-1.227-.097-1.218-.142-1.207-.189-1.195-.237-1.182-.286-1.165-.334-1.146-.384-1.125-.432-1.101-.479-1.075-.525-1.046-.568-1.018-.611-.99-.654-1.03-.747-.603-.47c-1.234-.961-2.199-1.112-2.156-.337.044.775 1.079 2.183 2.313 3.145" fill="#D3422B"/><g><path d="M339.136 176.036s12.071-.027 25.035-.067c-.521 10.062-.35 18.493-.296 28.792.509 3.102 4.478 1.896 4.478 1.896l38.027-30.45 31.25-.032 9.237 44.464-23.366.169-2.759-10.079-36.746.129-11.566 9.403-28.928.162.159-30.695-33.144 30.516-57.924.089c0 .001-12.801-11.425-16.627-17.878-3.118-2.769-6.599-.669-7.966.436-1.367 1.106-5.218 13.069-12.781 14.702-17.02 3.674-48.907 5.267-67.523.815-11.174-5.721-8.099-10.015-6.483-13.986 1.627-3.999 15.065-27.48 15.065-27.48l23.015-.052-13.766 26.728s-2.672 4.959 1.609 7.687c6.888 1.938 26.191 2.056 30.929-.715 5.453-5.453 19.577-33.611 19.576-33.611l23.421.09-8.214 17.95 43.211-18.527 29.184-.049.269 29.856 33.624-30.263zm-58.884 10.069l-23.029 9.99 22.521 19.981.508-29.971zm137.023 3.54l-4.756.041-16.23 14.264 22.07.056-1.084-14.361z" fill="#FFF"/><path d="M339.136 176.036s12.071-.027 25.035-.067c-.521 10.062-.35 18.493-.296 28.792.509 3.102 4.478 1.896 4.478 1.896l38.027-30.45 31.25-.032 9.237 44.464-23.366.169-2.759-10.079-36.746.129-11.566 9.403-28.928.162.159-30.695-33.144 30.516-57.924.089c0 .001-12.801-11.425-16.627-17.878-3.118-2.769-6.599-.669-7.966.436-1.367 1.106-5.218 13.069-12.781 14.702-17.02 3.674-48.907 5.267-67.523.815-11.174-5.721-8.099-10.015-6.483-13.986 1.627-3.999 15.065-27.48 15.065-27.48l23.015-.052-13.766 26.728s-2.672 4.959 1.609 7.687c6.888 1.938 26.191 2.056 30.929-.715 5.453-5.453 19.577-33.611 19.576-33.611l23.421.09-8.214 17.95 43.211-18.527 29.184-.049.269 29.856 33.624-30.263zm-58.884 10.069l-23.029 9.99 22.521 19.981.508-29.971zm137.023 3.54l-4.756.041-16.23 14.264 22.07.056-1.084-14.361z" stroke="#FFF" stroke-width="1.5" fill="none"/></g></svg>