<?xml version="1.0" encoding="UTF-8"?>
<svg id="Layer_1" xmlns="http://www.w3.org/2000/svg" version="1.1" viewBox="0 0 1080 1080">
  <!-- Generator: Adobe Illustrator 29.7.1, SVG Export Plug-In . SVG Version: 2.1.1 Build 8)  -->
  <defs>
    <style>
      .st0 {
        stroke: #fff;
        stroke-miterlimit: 10;
        stroke-width: 2px;
      }

      .st0, .st1 {
        fill: #c9a03c;
      }

      .st2 {
        opacity: .2;
      }
    </style>
  </defs>
  <g class="st2">
    <path class="st0" d="M527.3,233.5h-102.9v87.4h102.9v74.3h-171.3v-236.9h100.6v-83.4h-100.6V.6h171.3v232.9Z"/>
    <path class="st0" d="M724,395.3h-171.3v-73.2h100.6v-87.4h-100.6V.6h171.3v73.2h-101v83.4h101v238.1Z"/>
  </g>
  <path class="st1" d="M573.1,679.3c.3.2,46.6-7.4,114.6-29.5.2.5-34.6,23.3,50.1,1.1-.3-.7-86.5,21.1-34.5-7.9,0,.4-49.4,16.6-130.2,36.3ZM740,676.8c-40.1-11.1-95.6-3.6-95.5-3.4,29.4-3.6,95.5,3,95.5,3.4ZM719.8,689c0-.5-95-16.6-10.2,9.7.2,0-71.7-23.1,10.2-9.7ZM706,684c.1,0-48.1-10.4-94.9-3.4,0-.1,40.4,3.9,68.4,21.8.1,0-28.2-19.9-54.1-21.5,0,.1,30-4.2,80.6,3.1ZM340,640c.1,0,20.9,9.5,52-3.3,31.3-12.7,51.4-6.1,51.3-6.1,0,.2-6-11.5-49.7,1.3-43.4,13.3-53.4,8.2-53.5,8.1ZM549.2,633.2c-16.3-40.2-48.5-31.1-71.7-24.3-23.3,6.7-45.9,4.9-46,4.9-34.8-.7-57.3,17.8-57.2,17.7-.1,0,32.4-18.6,59.2-14.1,24.3,3.8,62.1-10.3,62.2-10.2-.2,0,29.4-9.6,49.4,20.5,5.2,7.9,4.3,15.3,4.3,15.3,0,0,1-6.6-.3-9.7ZM421.7,638c.1,0,13.8,6.1,49.1-10.6,35.7-16.5,45-8.7,44.9-8.8,0,0-13-8.6-42.1,3.7-28.8,12.6-21.6,12.6-49.3,15.3-.8.1-1.7.3-2.5.4ZM514.3,633.6c-11.9-10.2-44.8-8.3-65.8,9-.5.4-.9.7-1.4,1.1,32.8-15.8,52.5-13.1,52.4-13.2-27.3-1.4-81,34.1-80.6,34.4,6-4.2,8.6-7.3,8.6-9.5-4.3,1.9-8.6,3.4-12.8,4.6.4,0,.7,0,.7,0,0-.1-33.5,7.9-30.2,13.9,0,0,10,8.2,43,1.1,30.8-28.3,63.6-31.6,63.5-31.6-21.9,3.8-42.5,17.8-56.6,30.1,12.9-3.1,29-8.3,49.2-16,1.3-.3,2.6-.5,3.9-.8-20.9,10.7-40.2,16.8-56.6,20-4.5,4.1-8.2,7.9-11,10.9,6.5.5,13.1,0,19.4-2.2,3.1-1.1,6.3-1.8,9.4-2.2,8.6-5.5,21-10.7,38.1-11.8,0,0-17.9,1.9-33.1,11.4,23.5-1.1,43.4,12.9,43.4,12.9-28.2-39.6,16.1-62.1,16.5-61.9ZM425.5,677.6c-15.9,2.5-28.6,2.1-36.1.3,8.3,4.1,17.7,7.7,27.3,9.1,1.5-1.6,2.4-2.6,2.4-2.6,2.1-2.4,4.3-4.6,6.4-6.7ZM382.2,672.7c1.3-4.5,10.7-7.9,19.2-10.1-22.2,2.8-40-2.2-40-2.2,0,0,8.6,7,21,13.9-.3-.5-.4-1.1-.2-1.6ZM431.7,652.1c0,.3-8-10.3-64.4,3,0-.4,60.8-11.2,60.3.3,6.5-2.9,13.1-6.7,19.5-11.7-4.9,2.4-10,5.2-15.4,8.4ZM391.9,693.8c0,0-.7,19.6,23.1,0,0,0,2-2.5,5.6-6.4-1.3-.1-2.7-.3-4-.5-6,6.2-20.7,20.6-24.7,6.8ZM425.5,700s-20.2,9.5-15.3,12.5c.3-2.5,3.7-6.5,15.3-12.5ZM449.5,683.1c-12,7.7-16.5,16.1-16.5,16.1,0,0-13.4,15.9-21.6,13.7-.5-.1-.8-.3-1.1-.4-.4,3.1,3.9,4.1,3.9,4.1,0,0,11.3,3.1,24.9-19.1,3.9-6.3,9.5-11.2,15.5-14.9-1.7,0-3.3.2-5,.5ZM541.9,641.8c0,0-23-3.6-25.4-7.6,0,0,26.2-7.9,28.6,5,.6,3.5-3.2,2.6-3.2,2.6ZM540.6,638c-1.7-8.8-19.8-3.3-19.8-3.3,3,3.1,14.6,4.5,17.6,5.1,0,0,2.6.6,2.2-1.8ZM535.4,664.6s-17.9,3-14.2,18.6c3.5,15.6,20.2,8.6,20.3,8.7,0,0-13.4,1-15.5-6.5-2-7.5-5.6-11.6,9.5-20.8ZM566.1,683.2c-15.8-3.3,1.1-12.7,1.2-12.7-3.8-1.8-4.4-5.6-4.4-5.6,10.8-6.3,9.9-9.2,9.8-9.2-1.2-3.7-22.6-11.8-22.7-11.8,0,0,15,8.7,18.3,11.5,2.7,2.2-8.8,6.8-8.8,6.8-4.4,2.7,3.5,9.2,3.5,9.2-18.4,9,.5,13.8.5,13.8,0,0-1.5,1.3-5.7,9.3-8.9,16.9-46.9,6.8-47,6.9.2-.1,33.4,15.1,49.1-3,4.9-5.7,6.1-15.1,6.1-15.1h0ZM444.4,757.5c-.9-.8-1.9-1.4-3-1.7-1.1-.3-2.3-.5-3.5-.5s-2,.1-3,.4c-1,.3-1.8.7-2.6,1.3-.7.6-1.4,1.3-1.8,2.2-.4.9-.7,1.9-.7,3s.2,2.1.7,2.8c.5.7,1.1,1.3,1.8,1.7.7.4,1.5.8,2.4,1,.9.3,1.7.5,2.4.8.7.3,1.4.6,1.8.9.5.4.7.9.7,1.5s0,.7-.3,1c-.2.3-.4.5-.7.7-.3.2-.7.3-1,.4-.4,0-.8.1-1.2.1-.8,0-1.5-.2-2.3-.5-.7-.3-1.3-.8-1.8-1.5l-3.3,3.7c1,.9,2.1,1.6,3.3,2,1.2.4,2.5.6,3.8.6s2.1-.1,3.1-.4c1-.3,1.9-.7,2.6-1.3.7-.6,1.3-1.3,1.8-2.2.4-.9.7-1.9.7-3.1s-.2-2.2-.7-3c-.5-.7-1.1-1.3-1.8-1.8s-1.5-.8-2.4-1c-.8-.2-1.6-.5-2.4-.7-.7-.2-1.3-.5-1.8-.9-.5-.3-.7-.8-.7-1.5s0-.7.3-1c.2-.3.5-.5.8-.7.3-.2.7-.3,1-.4.4,0,.7-.1,1-.1.6,0,1.2.1,1.8.3.7.2,1.2.6,1.5,1.1l3.2-3.5ZM453.9,777.1h4.7v-21.2h-4.7v21.2ZM468.8,777.1h4.7v-15.1h0l9.3,15.1h6.1v-21.2h-4.7v14.7h0l-9-14.7h-6.4v21.2ZM516.7,758.4c-.5-.6-1-1.1-1.6-1.5-.6-.4-1.2-.7-1.8-1-.6-.2-1.3-.4-1.9-.5-.7-.1-1.3-.2-1.9-.2-1.7,0-3.2.3-4.6.8-1.4.5-2.6,1.3-3.6,2.2-1,1-1.8,2.1-2.4,3.5-.6,1.4-.9,2.9-.9,4.6s.3,3.2.9,4.6c.6,1.4,1.4,2.6,2.4,3.5,1,1,2.2,1.7,3.6,2.2,1.4.5,2.9.8,4.6.8s2.9-.3,4.3-.9c1.4-.6,2.5-1.5,3.4-2.8l-3.9-2.9c-.5.7-1.1,1.3-1.8,1.7-.7.4-1.6.6-2.5.6s-1.6-.2-2.4-.5c-.7-.3-1.4-.8-1.9-1.4-.5-.6-1-1.3-1.3-2.2-.3-.8-.5-1.7-.5-2.7s.2-1.9.5-2.7c.3-.8.7-1.6,1.3-2.2.6-.6,1.2-1.1,1.9-1.4.7-.3,1.6-.5,2.4-.5s1.7.1,2.3.4c.7.3,1.2.7,1.7,1.3l3.6-2.9ZM525.9,777.1h15v-4.3h-10.3v-4.3h9.2v-4.3h-9.2v-4h9.7v-4.3h-14.4v21.2ZM572,777.1h4.3v-21.2h-4.2l-6.9,5.8,2.5,2.9,4.3-3.7v16.2ZM591.3,777.1h5.5l4.6-7.3c.3-.5.7-1.1,1-1.6.3-.5.6-1,.8-1.6.2-.6.4-1.2.6-1.8.1-.6.2-1.3.2-2.1,0-1.1-.2-2.1-.6-3-.4-.9-1-1.7-1.7-2.3-.7-.6-1.5-1.1-2.5-1.5-1-.3-2-.5-3.1-.5s-2.2.2-3.1.5c-1,.3-1.8.8-2.5,1.5-.7.6-1.3,1.4-1.7,2.3-.4.9-.6,1.9-.6,3s.2,1.9.5,2.7c.3.8.8,1.6,1.3,2.2.6.6,1.3,1.1,2.1,1.5.8.4,1.7.5,2.7.5s.5,0,.7,0c.2,0,.5,0,.7-.2l-5,7.6ZM593.5,760.6c.6-.6,1.5-.9,2.5-.9s1.8.3,2.5.9c.6.6.9,1.4.9,2.4s-.3,1.8-.9,2.4c-.6.6-1.5.9-2.5.9s-1.8-.3-2.5-.9c-.6-.6-.9-1.4-.9-2.4s.3-1.8.9-2.4ZM613.7,777.1h5.2l8.5-17.3v-4h-15.5v4.1h10.5l-8.7,17.1ZM636,777.1h14.8v-4h-9.4l6.4-5.5c.4-.4.8-.7,1.1-1.1.3-.4.6-.8.9-1.2.3-.4.4-.9.6-1.5.1-.5.2-1.2.2-1.8,0-1.1-.2-2-.5-2.8-.3-.8-.8-1.5-1.5-2-.6-.5-1.3-.9-2.2-1.2-.8-.3-1.7-.4-2.7-.4s-2,.1-2.9.4c-.9.3-1.7.7-2.3,1.2-.7.5-1.2,1.2-1.6,2-.4.8-.6,1.8-.7,2.9l4.5.3c0-.8.3-1.4.8-1.9.5-.5,1.1-.8,2-.8s1.3.2,1.8.6c.5.4.8,1,.8,1.7s-.2,1.2-.6,1.7c-.4.5-.8.9-1.3,1.3l-8.2,7.4v4.8ZM365.2,455h6.7l7.7-24.3h0l7.7,24.3h6.9l10.3-35.2h-7.8l-5.9,23.1h0l-7.3-23.1h-7.2l-7.3,22.5h0l-5.6-22.5h-8.4l10.4,35.2ZM418.4,455h24.8v-7.2h-17v-7.2h15.2v-7.2h-15.2v-6.6h16.1v-7.2h-23.9v35.2ZM467.9,455h7.7v-15l13.2-20.2h-9.2l-7.9,13.2-7.5-13.2h-9.6l13.2,20.2v15ZM501.4,455h7.7v-27h0l8.9,27h5.9l9.2-27h0v27h7.7v-35.2h-11.7l-8.1,22.9h0l-8.1-22.9h-11.7v35.2ZM557.7,445c.9,2.3,2.3,4.2,3.9,5.8,1.7,1.6,3.7,2.8,6,3.7,2.3.9,4.9,1.3,7.6,1.3s5.3-.4,7.6-1.3c2.3-.9,4.3-2.1,6-3.7,1.7-1.6,3-3.6,3.9-5.8.9-2.3,1.4-4.8,1.4-7.6s-.5-5.4-1.4-7.6c-.9-2.3-2.3-4.2-3.9-5.8-1.7-1.6-3.7-2.8-6-3.7-2.3-.9-4.9-1.3-7.6-1.3s-5.3.4-7.6,1.3c-2.3.9-4.3,2.1-6,3.7-1.7,1.6-3,3.6-3.9,5.8-.9,2.3-1.4,4.8-1.4,7.6s.5,5.4,1.4,7.6ZM565.1,432.9c.5-1.4,1.2-2.6,2.2-3.6,1-1,2.1-1.8,3.5-2.4,1.3-.6,2.8-.8,4.5-.8s3.2.3,4.5.8c1.3.6,2.5,1.4,3.5,2.4,1,1,1.7,2.2,2.2,3.6.5,1.4.8,2.9.8,4.5s-.3,3.2-.8,4.5c-.5,1.4-1.3,2.6-2.2,3.6-1,1-2.1,1.8-3.5,2.4-1.3.6-2.8.8-4.5.8s-3.2-.3-4.5-.8c-1.3-.6-2.5-1.3-3.5-2.4-1-1-1.7-2.2-2.2-3.6-.5-1.4-.8-2.9-.8-4.5s.3-3.1.8-4.5ZM639.1,419.8h-7.7v21.3c0,1.1-.2,2.1-.5,3-.3.9-.8,1.7-1.5,2.4-.6.7-1.4,1.2-2.2,1.6-.9.4-1.8.6-2.8.6s-2-.2-2.9-.6c-.9-.4-1.6-.9-2.3-1.6-.6-.7-1.1-1.5-1.5-2.4-.3-.9-.5-1.9-.5-3v-21.3h-7.7v21.6c0,2.1.3,4,.9,5.8.6,1.8,1.6,3.3,2.8,4.6,1.2,1.3,2.8,2.3,4.6,3,1.9.7,4,1.1,6.5,1.1s4.6-.4,6.4-1.1c1.9-.7,3.4-1.7,4.6-3,1.2-1.3,2.2-2.8,2.8-4.6.6-1.8.9-3.7.9-5.8v-21.6ZM663,455h7.7v-28.3h10v-6.9h-27.8v6.9h10v28.3ZM694.6,455h7.7v-15.2h15v15.2h7.7v-35.2h-7.7v13.1h-15v-13.1h-7.7v35.2ZM384.9,501.3c-1.4-1.2-2.9-2.1-4.6-2.6-1.7-.5-3.5-.8-5.3-.8s-3.1.2-4.6.7c-1.5.4-2.8,1.1-4,2-1.2.9-2.1,2-2.8,3.3-.7,1.3-1,2.9-1,4.6s.4,3.3,1.1,4.4c.8,1.1,1.7,2,2.8,2.7,1.1.7,2.4,1.2,3.7,1.6,1.3.4,2.5.8,3.7,1.2,1.1.4,2.1.9,2.8,1.4.8.6,1.1,1.3,1.1,2.3s-.1,1.1-.4,1.5c-.3.4-.7.8-1.2,1.1-.5.3-1,.5-1.6.6-.6.1-1.2.2-1.8.2-1.2,0-2.4-.3-3.5-.8-1.1-.5-2-1.3-2.8-2.3l-5.1,5.6c1.6,1.4,3.3,2.5,5.1,3.1,1.8.6,3.8,1,5.9,1s3.3-.2,4.8-.6c1.5-.4,2.9-1.1,4-2,1.2-.9,2.1-2,2.7-3.4.7-1.3,1-2.9,1-4.7s-.4-3.4-1.1-4.6c-.7-1.1-1.7-2-2.8-2.7-1.1-.7-2.3-1.2-3.6-1.6-1.3-.4-2.5-.7-3.6-1.1-1.1-.4-2-.8-2.8-1.3-.7-.5-1.1-1.3-1.1-2.3s.2-1.1.5-1.6c.3-.4.7-.8,1.2-1,.5-.3,1-.5,1.6-.6.6-.1,1.1-.2,1.6-.2.9,0,1.8.2,2.8.5,1,.4,1.8.9,2.4,1.6l4.9-5.4ZM397.2,531.3h7.2v-12.7h5.2c1.7,0,3.3-.2,4.8-.5,1.5-.3,2.7-.9,3.8-1.6,1.1-.8,1.9-1.8,2.5-3.1.6-1.3.9-2.9.9-4.8s-.3-3.5-1-4.8c-.7-1.3-1.5-2.3-2.7-3-1.1-.8-2.4-1.3-3.9-1.6-1.5-.3-3.1-.5-4.8-.5h-12.1v32.6ZM404.4,504.8h3.7c.7,0,1.4,0,2.1.1.7,0,1.4.3,2,.5.6.3,1.1.7,1.5,1.2.4.5.6,1.2.6,2s-.1,1.4-.4,1.9c-.3.5-.7.9-1.2,1.2s-1,.5-1.6.6c-.6.1-1.2.2-1.9.2h-4.8v-7.7ZM433.4,531.3h23v-6.6h-15.8v-6.6h14.1v-6.6h-14.1v-6.1h15v-6.6h-22.1v32.6ZM469.3,531.3h23v-6.6h-15.8v-6.6h14.1v-6.6h-14.1v-6.1h15v-6.6h-22.1v32.6ZM504.9,531.3h11.7c2.4,0,4.7-.4,6.9-1.1,2.2-.7,4.2-1.7,5.8-3.1,1.7-1.4,3-3.1,4-5.1,1-2,1.5-4.3,1.5-7s-.5-5.5-1.5-7.6c-1-2.1-2.4-3.8-4.2-5.1-1.7-1.3-3.8-2.2-6.1-2.8-2.3-.6-4.8-.9-7.4-.9h-10.8v32.6ZM512.1,505.3h4.2c1.5,0,2.9.2,4.3.6,1.4.4,2.6,1,3.6,1.7,1,.8,1.8,1.7,2.4,2.9.6,1.2.9,2.6.9,4.2s-.3,3.4-.9,4.7c-.6,1.3-1.4,2.3-2.5,3.1-1,.8-2.3,1.3-3.7,1.7-1.4.3-3,.5-4.6.5h-3.7v-19.3ZM569.4,531.3h6.2l7.2-22.5h0l7.2,22.5h6.4l9.5-32.6h-7.3l-5.5,21.4h0l-6.8-21.4h-6.7l-6.8,20.9h0l-5.2-20.9h-7.8l9.7,32.6ZM616.3,531.3h23v-6.6h-15.8v-6.6h14.1v-6.6h-14.1v-6.1h15v-6.6h-22.1v32.6ZM652.2,531.3h23v-6.6h-15.8v-6.6h14.1v-6.6h-14.1v-6.1h15v-6.6h-22.1v32.6ZM688.1,531.3h7.2v-15.5l13.2,15.5h10l-15.7-17.4,14.5-15.1h-9.4l-12.7,13.5v-13.5h-7.2v32.6ZM725.3,475.2h-370.5v1.9h370.5v-1.9ZM725.3,552.8h-370.5v1.9h370.5v-1.9Z"/>
</svg>